<?xml version="1.0" encoding="UTF-8"?>
<svg xmlns="http://www.w3.org/2000/svg" viewBox="0 0 312.99 208.7">
  <defs>
    <style>
      .cls-1 {
        fill: #d72793;
      }

      .cls-2 {
        fill: #ffae00;
      }

      .cls-3 {
        fill: #f15a29;
      }

      .cls-4 {
        isolation: isolate;
      }

      .cls-5 {
        fill: #39854a;
      }

      .cls-6 {
        fill: #f82793;
      }

      .cls-7 {
        fill: #39b54a;
      }

      .cls-8 {
        fill: #a02793;
      }

      .cls-9 {
        fill: #0277cd;
      }

      .cls-10 {
        fill: #02afcd;
      }

      .cls-11 {
        fill: #8dc63f;
      }

      .cls-12, .cls-13 {
        fill: #ffdd15;
      }

      .cls-12, .cls-14 {
        mix-blend-mode: multiply;
      }

      .cls-15 {
        fill: #ef4136;
      }
    </style>
  </defs>
  <g class="cls-4">
    <g id="Layer_2" data-name="Layer 2">
      <g id="Layer_1-2" data-name="Layer 1">
        <g>
          <g>
            <path class="cls-13" d="M191.85,40.73c0,8.56-6.94,15.5-15.5,15.5s-15.5-6.94-15.5-15.5,6.94-15.5,15.5-15.5,15.5,6.94,15.5,15.5Z"/>
            <path class="cls-7" d="M250.12,177.05c0,5.67-4.6,10.27-10.27,10.27s-10.27-4.6-10.27-10.27,4.6-10.27,10.27-10.27,10.27,4.6,10.27,10.27Z"/>
            <path class="cls-11" d="M252.83,41.9c0,9.11-7.38,16.49-16.49,16.49s-16.49-7.38-16.49-16.49,7.38-16.49,16.49-16.49,16.49,7.38,16.49,16.49Z"/>
            <path class="cls-2" d="M78.25,23.3c0,12.73-10.32,23.05-23.06,23.05s-23.05-10.32-23.05-23.05S42.46,.24,55.19,.24s23.06,10.32,23.06,23.05Z"/>
            <path class="cls-6" d="M90.35,5.18c0,2.86-2.32,5.18-5.18,5.18s-5.18-2.32-5.18-5.18,2.32-5.18,5.18-5.18,5.18,2.32,5.18,5.18Z"/>
            <path class="cls-6" d="M37.32,171.38c0,2.86-2.32,5.18-5.18,5.18s-5.18-2.32-5.18-5.18,2.32-5.18,5.18-5.18,5.18,2.32,5.18,5.18Z"/>
            <path class="cls-10" d="M312.99,82.55c0,12.73-10.32,23.06-23.06,23.06s-23.06-10.32-23.06-23.06,10.32-23.05,23.06-23.05,23.06,10.32,23.06,23.05Z"/>
            <path class="cls-11" d="M84.52,118.87c0,23.34-18.92,42.26-42.26,42.26S0,142.21,0,118.87s18.92-42.26,42.26-42.26,42.26,18.92,42.26,42.26Z"/>
            <path class="cls-11" d="M226.29,165.88c0,13.58-11.01,24.58-24.58,24.58s-24.58-11-24.58-24.58,11.01-24.58,24.58-24.58,24.58,11,24.58,24.58Z"/>
            <path class="cls-6" d="M271.21,28.91c0,4.68-3.8,8.48-8.48,8.48s-8.48-3.8-8.48-8.48,3.8-8.48,8.48-8.48,8.48,3.8,8.48,8.48Z"/>
            <path class="cls-2" d="M141.62,200.21c0,4.68-3.8,8.48-8.48,8.48s-8.48-3.8-8.48-8.48,3.8-8.48,8.48-8.48,8.48,3.8,8.48,8.48Z"/>
            <path class="cls-10" d="M21.99,72.25c0,5.67-4.6,10.27-10.27,10.27s-10.27-4.6-10.27-10.27,4.6-10.26,10.27-10.26,10.27,4.6,10.27,10.26Z"/>
          </g>
          <g>
            <g>
              <path class="cls-11" d="M150.23,113.06c-.62,3.64-.56,5.11-.49,5.63,.21,1.5-.29,3.02-1.36,4.1-.92,.92-2.16,1.43-3.44,1.43-.22,0-.44-.01-.65-.04l-6.08-.83c2.25,2.27,3.64,5.39,3.64,8.83s-1.34,6.46-3.53,8.72c.86,.16,1.66,.57,2.32,1.16,.56-.71,1.17-1.4,1.81-2.07,4.17-4.32,9.68-7.17,15.58-8.12l-7.75-18.71s-.02-.07-.03-.11Zm1.18,15.54c-1.65,.59-3.25,1.32-4.78,2.16-.05-.61-.13-1.21-.24-1.8,1.6-.24,3.11-.87,4.4-1.85l.62,1.49Z"/>
              <path class="cls-11" d="M130.93,96.17c-.24,.08-.47,.15-.72,.19l-10.47,1.69c-.26,.04-.52,.06-.77,.06-1.11,0-2.2-.38-3.07-1.09-.47-.39-.86-.85-1.16-1.37-3.14,2.16-6.74,3.69-10.66,3.69h0c-.21,0-.42,0-.63-.01-1.11-.05-2.17-.21-3.2-.43l20.61,15.46c2.05,1.54,2.55,4.41,1.14,6.55-.12,.18-.69,1.04-1.63,2.37,1.78-1.78,4.09-3.01,6.66-3.48-.57-1.05-.76-2.26-.48-3.43,.05-.2,2.09-8.8,4.38-20.2Zm-7.88,13.76l-10.22-7.66c.43-.19,.85-.39,1.28-.61,1.47,.85,3.15,1.3,4.85,1.3,.52,0,1.04-.04,1.55-.12l4.23-.68c-.64,3.03-1.22,5.67-1.69,7.78Z"/>
              <path class="cls-11" d="M113.23,71.99l-.39-9.58c-1.04,4.69-1.64,8.98-1.59,11.51,.55-.42,1.22-1.04,1.98-1.94Z"/>
              <path class="cls-11" d="M93.32,96.7c.37-.16,.75-.25,1.14-.3-1.15-.82-2.19-1.81-3.11-2.94-.62,1.08-1.33,2.13-2.14,3.15-3.81,4.76-9.52,8.22-15.81,10.74,.51,.78,.8,1.7,.79,2.69l-.41,29.76c5.98-5.4,13.6-16.57,16.6-39.26,.23-1.71,1.34-3.17,2.93-3.83Zm-14.47,27.84l.2-14.39c1.91-.92,3.69-1.91,5.34-2.96-1.45,7.23-3.4,12.9-5.53,17.35Z"/>
              <path class="cls-11" d="M120.86,141.53c-2.56-2.3-4.18-5.65-4.18-9.36,0-2.02,.49-3.93,1.34-5.62-5.9,8.02-17.66,22.78-30.89,32.42,3.87,3.56,10.92,7.64,22.94,7.64h0c2.9,0,5.99-.26,9.2-.74l-2.82-18.79c-.2-1.36,.18-2.74,1.05-3.8,.84-1.01,2.05-1.64,3.35-1.75Zm-7.1-1.34c-1.75,2.12-2.51,4.89-2.11,7.61l2.08,13.82c-1.27,.09-2.49,.14-3.66,.14-6.55,0-11.34-1.34-14.78-3.05,6.95-5.86,13.29-12.7,18.37-18.77,.04,.08,.08,.15,.11,.22,0,0-.01,.02-.02,.02Z"/>
              <path class="cls-11" d="M163.64,157.92c-1.6,.34-1.53,2.23-1.47,2.8,.08,.77,.47,2.55,2.39,2.56,0,0,.04,0,.07,0,.88-.23,2.88-1.53,3.9-4.32-1.39-.8-2.9-1.11-3.98-1.11-.33,0-.64,.03-.91,.08Z"/>
              <path class="cls-11" d="M153.25,99.74c-.86,3.27-1.52,5.98-2.02,8.25,.51-.54,1.14-.98,1.85-1.24l10.18-3.7c-3.36-.59-6.78-1.72-10.01-3.31Z"/>
              <path class="cls-11" d="M242.55,123.72c-1.65,0-1.82,2.88-1.82,4.11s.19,3.96,1.88,4.1c.23-.43,.73-1.71,.73-4.73,0-2.17-.3-3.13-.45-3.47-.08,0-.19-.02-.34-.02Z"/>
              <path class="cls-11" d="M254.27,103.05c-.04,1.26-.58,2.44-1.48,3.32,1.52,.77,2.93,1.75,4.22,2.92-.47-5.73-1.22-11.88-2.41-17.99l-.33,11.75Z"/>
              <path class="cls-11" d="M235,102.16l-1.28-11.16c-1.54,2.25-3.56,4.38-6.2,6.15,.87-.02,1.4-.03,1.41-.03,1.32,0,2.59,.54,3.51,1.5,.93,.98,1.42,2.3,1.33,3.66l-.41,6.43c1.36-1.1,2.83-2.02,4.38-2.72-1.49-.7-2.56-2.13-2.75-3.83Z"/>
              <path class="cls-11" d="M287.06,69.8c-1.59-11.26-7.86-18.93-17.19-21.04-1.88-.42-3.8-.64-5.71-.64-3.1,0-6.18,.55-9.17,1.64-1.33-.66-2.8-1.01-4.32-1.01-.3,0-.6,.01-.92,.04l-15.61,1.49c-.16,.02-.32,.04-.48,.06-5.42-9.6-13.31-14.81-22.61-14.81-2.33,0-4.7,.35-7.06,1.04-5.84,1.71-10.98,5.54-14.71,10.83-1.39-.89-2.89-1.62-4.52-2.2-2.64-.94-5.55-1.41-8.65-1.41-1.29,0-2.62,.08-3.97,.24-.68-1.04-1.56-1.95-2.63-2.69-2.65-1.82-8.17-3.92-27.51-3.92-2.64,0-5.2,1.11-7.02,3.03-1.37,1.45-2.26,3.29-2.55,5.24-.49-.09-1-.14-1.51-.16-13.42-.36-13.44-.36-13.53-.36-.44,0-.88,.03-1.32,.09-.85-.63-1.82-1.12-2.86-1.45l-15.28-4.8c-.6-.19-1.21-.32-1.83-.38l4.14-8.52c1.23-2.53,1.3-5.45,.2-8.04-1.1-2.58-3.26-4.56-5.93-5.43-7.36-2.39-14.51-3.68-21.26-3.82-.42,0-.84-.01-1.25-.01-17.18,0-27.89,7.19-33.86,13.23-7.7,7.79-12.04,18.45-11.92,29.23,.11,9.33,3.58,15.7,8.33,20.1-1.42,1.35-2.41,3.1-2.82,5.05l-5.61,26.84c-.6,2.88,.12,5.84,1.98,8.12,1.85,2.27,4.59,3.57,7.56,3.57,.16,0,.6,0,1.29-.02,1.7,8.33,8.74,44.41,8.21,67.87-.06,2.73,1.04,5.38,3.03,7.26,1.81,1.71,4.18,2.66,6.67,2.66,.25,0,.49,0,.74-.03l13.45-1.04c4.03-.31,7.29-2.99,8.48-6.64,3.72,2.83,7.94,5.27,12.61,7.3,10.5,4.57,19.71,5.52,20.73,5.61,.29,.03,.58,.04,.87,.04,3.74,0,7.18-2.19,8.78-5.57l3.66-7.79c.64,.13,1.31,.2,1.98,.2h10.12c2.53,0,4.84-.96,6.56-2.53,4.93,4.35,10.78,6.69,16.93,6.69,2.46,0,4.95-.38,7.38-1.13,5.08-1.56,9.49-3.79,13.15-6.66,.35,.04,.71,.06,1.06,.06,1.07,0,2.13-.18,3.15-.53l11.53-3.96c4.83-1.66,7.56-6.82,6.2-11.74l-.64-2.33c.4,.01,.8,.02,1.19,.02,3.56,0,6.9-.49,9.96-1.45,1.05,.38,2.17,.58,3.29,.58h9.46c5.11,0,9.36-3.99,9.68-9.09l.05-.74c2.31,.86,4.78,1.3,7.37,1.3,3.2,0,6.36-.68,9.37-2,2.92,6.48,9.54,10.94,17,10.94,.92,0,1.86-.07,2.77-.2,5.29-.78,9.51-3.5,11.9-7.66,1.93-3.36,2.56-7.45,1.87-12.14-.35-2.41-1.12-4.73-2.24-6.82,.02-.15,.03-.31,.04-.47l3.57-49.47c.1-1.33-.09-2.65-.53-3.89,.28-.67,.48-1.38,.6-2.11,.04-.27,1.08-6.68,.09-13.66Zm-4.88,12.87c-.18,1.09-.72,2.04-1.48,2.75,.92,.96,1.46,2.27,1.36,3.7l-3.57,49.47c-.04,.56-.18,1.11-.4,1.61,1.33,1.9,2.26,4.19,2.63,6.73,.53,3.59,.09,6.62-1.28,9.02-1.15,2.01-3.55,4.56-8.4,5.27-.68,.1-1.38,.15-2.06,.15-6.78,0-12.62-4.96-13.59-11.54-.11-.75-.15-1.49-.15-2.21-3.66,2.98-8.06,4.8-12.63,4.8s-8.61-1.8-11.69-4.96l-.56,8.95c-.16,2.56-2.28,4.54-4.84,4.54h-9.46c-1.11,0-2.13-.37-2.95-1-3.06,1.25-6.5,1.87-10.3,1.87-.39,0-.79,0-1.2-.02-2.46-.08-4.75-.66-6.82-1.68l2.79,10.15c.68,2.47-.68,5.04-3.1,5.87l-11.53,3.96c-.52,.18-1.05,.26-1.58,.26-.79,0-1.57-.2-2.26-.56-3.49,3.24-7.97,5.71-13.38,7.37-1.98,.61-3.98,.92-5.96,.92h0c-6.47,0-12.61-3.3-17.3-9.3-.44-.57-.86-1.16-1.27-1.76l-.07,2.22c-.09,2.61-2.23,4.69-4.85,4.69h-10.12c-1.71,0-3.22-.9-4.09-2.27l-5.94,12.64c-.8,1.71-2.52,2.79-4.39,2.79-.15,0-.29,0-.44-.02-.37-.03-9.23-.88-19.23-5.23-7.74-3.37-14.07-7.93-18.81-13.49l-.11,7.66c-.03,2.51-1.98,4.58-4.48,4.77l-13.45,1.04c-.12,0-.25,.01-.37,.01-1.24,0-2.43-.47-3.33-1.33-.99-.94-1.54-2.26-1.51-3.63,.61-27.18-8.59-70.32-8.68-70.75-.17-.78-.13-1.56,.07-2.29-3.26,.21-5.4,.23-5.76,.24h-.02c-1.46,0-2.84-.65-3.76-1.78-.93-1.13-1.29-2.63-.99-4.06l5.61-26.85c.28-1.35,1.13-2.52,2.33-3.21,.74-.43,1.58-.64,2.41-.64,.52,0,1.04,.08,1.54,.25,.09,.03,9.01,2.97,16.14,2.97,.11,0,.22,0,.33,0-.07-.01-.15-.03-.22-.05-9.68-1.98-27.71-5.66-27.94-25.52-.11-9.5,3.72-18.89,10.52-25.76,5.31-5.38,14.9-11.79,30.41-11.79,.38,0,.76,0,1.15,.01,6.28,.13,12.96,1.33,19.87,3.58,1.33,.43,2.41,1.42,2.96,2.71,.55,1.29,.51,2.76-.1,4.02l-15.54,31.98c-.83,1.71-2.55,2.73-4.36,2.73-.5,0-1-.08-1.5-.24-.06-.02-6.01-1.92-10.84-1.92-1.39,0-2.24,.16-2.73,.31,1.89,1.02,6.69,1.95,9.72,2.53,5.21,1.01,11.16,2.18,15.79,4.78,.11-1.35,.26-2.73,.44-4.17,1.19-9.19,3.42-16.79,3.51-17.11,.37-1.25,1.22-2.29,2.37-2.9,.71-.38,1.49-.57,2.28-.57,.49,0,.98,.07,1.45,.22l15.27,4.8c1.3,.41,2.31,1.31,2.88,2.44,.81-.56,1.77-.86,2.76-.86,.04,0,13.4,.36,13.4,.36,1.42,.04,2.74,.69,3.64,1.79,.89,1.1,1.26,2.54,1,3.93-.03,.18-2.7,15.03-2.08,27.36,2.34-13.22,4.28-27.37,3.83-36.09-.07-1.33,.41-2.62,1.32-3.59,.91-.96,2.18-1.51,3.51-1.51,13.49,0,21.8,1.03,24.75,3.06,1.4,.96,2.16,2.56,2.09,4.2,2.32-.55,4.78-.9,7.26-.9s4.91,.38,7.03,1.13c2.54,.9,5.23,2.49,7.39,5.22,3.05-6.88,8.43-11.89,14.83-13.77,1.91-.56,3.83-.84,5.69-.84,8.66,0,15.86,5.89,20.37,16.38,.82-.93,1.95-1.53,3.18-1.65l15.61-1.49c.15-.01,.31-.02,.46-.02,1.22,0,2.41,.46,3.31,1.31,.13,.12,.25,.25,.37,.38,2.72-1.31,6.03-2.32,9.81-2.32,1.55,0,3.12,.18,4.64,.52,7.36,1.66,12.14,7.7,13.46,16.99,.88,6.21-.03,11.95-.07,12.19Z"/>
              <path class="cls-11" d="M256.91,71.37c-.2,.1-.84,.5-1.81,1.79l-.31,11.2c.08-.12,.17-.23,.27-.34,.24-.27,.5-.51,.79-.72-.37-1.06-.38-2.22,.02-3.3,1.26-3.46,1.65-7.5,1.12-8.62-.02,0-.05,0-.07-.01Z"/>
              <path class="cls-11" d="M161.51,79.28c1.21,.72,2.38,1.1,3.42,1.1h0c2.54,0,3.85-2.18,4.19-2.85,.62-1.22,1.01-3.12,.07-4.5-.7,.17-3.1,1.1-7.69,6.24Z"/>
              <path class="cls-11" d="M207.34,139.8s-.02,0-.04,0c-.22,0-.52,.53-.58,1.05-.08,.65,.09,.86,.33,.96,.44-.03,1.34-.29,2.23-1.07-.69-.55-1.44-.87-1.94-.94,.02,0,0,0,0,0Z"/>
              <path class="cls-11" d="M207.87,102.57c-.04-.71,.08-1.41,.33-2.06-6.51-2.07-12.23-7.45-16.06-15.12-2.28,6.24-6.37,12.93-13.69,16.16,.26,.41,.49,.85,.62,1.33l7.19,26.18c3.64-7.47,11.29-12.29,19.99-12.29,.85,0,1.68,.05,2.52,.14l-.89-14.35Zm-19.48,15.92l-4.03-14.66c3.22-2.16,6.02-5.06,8.33-8.63,3,3.69,6.52,6.56,10.38,8.46l.52,8.39c-5.75,.54-11.03,2.81-15.21,6.44Z"/>
              <path class="cls-11" d="M212.18,78.87c.16,0,.44-.03,.87-.15,2.04-.6,2.45-2.93,2.44-4.7l-5.61,1.8c.89,2.09,1.74,3.05,2.3,3.05Z"/>
              <path class="cls-11" d="M231.2,68.91s-.02,.01-.03,.02h.04s0-.02,0-.02Z"/>
            </g>
            <g>
              <g>
                <path class="cls-15" d="M35.62,111.19c-.58,0-1.13-.26-1.5-.71-.37-.45-.52-1.05-.4-1.62l5.61-26.85c.11-.54,.45-1.01,.93-1.29,.3-.17,.63-.26,.97-.26,.21,0,.41,.03,.61,.1,.09,.03,9.44,3.12,17.06,3.12,4.6,0,7.41-1.07,8.36-3.19,.03-.12,.03-.19,.03-.21-.35-.9-4.95-1.84-7.7-2.4-10.12-2.07-25.41-5.19-25.61-22.7-.1-8.72,3.42-17.36,9.68-23.68,4.93-4.98,13.84-10.92,28.34-10.92,.36,0,.72,0,1.09,.01,5.99,.12,12.39,1.28,19.03,3.44,.53,.17,.97,.57,1.19,1.08,.22,.52,.21,1.1-.04,1.61l-15.54,31.98c-.33,.68-1.02,1.09-1.75,1.09-.2,0-.4-.03-.6-.09-.06-.02-6.43-2.06-11.74-2.06-5.77,0-5.98,2.32-6.05,3.08-.26,2.84,4.78,4.03,12.5,5.53,8.47,1.64,18.07,3.5,20.58,10.69,.03,.07,.05,.15,.06,.23,1.47,6.73,.2,12.66-3.78,17.63-12.84,16.03-49.75,16.4-51.31,16.4h0Z"/>
                <path class="cls-15" d="M104.09,96.44c-.17,0-.34,0-.51,0-4.52-.19-8.06-2.04-10.54-5.5-8.86-12.39-.25-41.95,.12-43.21,.15-.5,.49-.92,.95-1.16,.28-.15,.6-.23,.91-.23,.2,0,.39,.03,.58,.09l15.27,4.8c1.02,.32,1.59,1.4,1.27,2.42-4.18,13.51-4.31,22.03-3.07,23.76,.16,.22,.26,.26,.47,.26h.11c1.85,0,4.16-1.66,6.53-4.69l-.74-18.02c-.02-.54,.18-1.06,.56-1.44,.37-.37,.86-.58,1.38-.58,.02,0,13.32,.36,13.32,.36,.57,.01,1.1,.28,1.45,.72,.36,.44,.5,1.01,.4,1.57-.04,.22-4.02,22.28-1.23,35.6,.11,.52,0,1.06-.3,1.5-.3,.44-.77,.73-1.29,.82l-10.47,1.69c-.1,.02-.21,.02-.31,.02-.44,0-.88-.15-1.23-.44-.43-.35-.69-.87-.71-1.42l-.13-3.22c-3.48,3.36-7.94,6.31-12.81,6.31Z"/>
                <path class="cls-15" d="M144.93,121.31c-.09,0-.17,0-.26-.02l-13.67-1.86c-.54-.07-1.03-.37-1.34-.83-.31-.45-.41-1.01-.29-1.55,.12-.49,11.75-49.41,10.69-69.84-.03-.53,.17-1.05,.53-1.43,.37-.38,.87-.6,1.4-.6,5.87,0,19.75,.25,23.09,2.55,.72,.49,1.02,1.41,.73,2.23,0,0-.55,1.6-1.36,3.96,4.11-1.55,8.14-2.38,11.63-2.38,2.21,0,4.25,.32,6.06,.97,5.2,1.84,11.08,7.22,9.58,22.38-3.18,22.41-15.93,25.75-23.24,25.75-5.56,0-11.78-1.93-17.08-5.24-4.3,15.56-4.87,21.49-4.56,23.7,.09,.6-.12,1.21-.54,1.64-.37,.37-.86,.57-1.38,.57Zm12.36-41.57c2.58,2.33,5.19,3.55,7.64,3.55h0c2.83,0,5.37-1.66,6.79-4.44,1.35-2.64,1.27-5.56-.22-7.6-.35-.48-.72-.81-1.14-.98-.29-.12-.6-.18-.94-.18-1.61,0-5.28,1.29-12.13,9.65Z"/>
                <path class="cls-15" d="M214.2,98.54c-9.66,0-18.36-8.4-22.17-21.39-2.05-7-1.7-14.33,1-20.65,2.68-6.27,7.47-10.82,13.14-12.49,1.65-.48,3.29-.73,4.88-.73,8.92,0,16.16,7.57,19.87,20.76,.28,1-.28,2.05-1.27,2.37l-23.51,7.56c2.11,6.99,4.46,7.81,6.05,7.81,.51,0,1.08-.09,1.69-.27,3.33-.97,4.98-4.42,4.43-9.23-.07-.6,.15-1.21,.59-1.62,.36-.35,.84-.54,1.34-.54,.1,0,.21,0,.31,.03l13.86,2.26c1.01,.16,1.72,1.09,1.62,2.11-.81,8.24-3.47,19.62-17.14,23.39-1.55,.43-3.12,.64-4.67,.64Z"/>
                <path class="cls-15" d="M249.42,104.86c-.09,0-.17,0-.26-.02l-9.6-1.3c-.88-.12-1.57-.82-1.67-1.7l-4.76-41.67c-.06-.52,.09-1.04,.42-1.44,.33-.41,.8-.66,1.32-.71l15.61-1.49c.06,0,.12,0,.18,0,.49,0,.96,.19,1.33,.52,.41,.38,.63,.91,.61,1.47l-.03,1.17c2.77-1.89,6.75-3.79,11.58-3.79,1.34,0,2.68,.15,4,.45,6.19,1.4,10.07,6.43,11.22,14.56,.82,5.78-.03,11.09-.07,11.32-.15,.94-.96,1.63-1.91,1.63,0,0-17-.21-17-.21-.63,0-1.22-.32-1.58-.84-.36-.52-.44-1.18-.22-1.77,1.13-3.06,2.34-8.83,.79-11.29-.3-.48-.87-1.13-2.33-1.26-.08,0-.15,0-.22,0-1.34,0-2.97,1.32-4.61,3.74l-.86,30.78c-.02,.55-.26,1.07-.68,1.42-.35,.3-.8,.46-1.26,.46Z"/>
              </g>
              <path class="cls-9" d="M111.57,194.2c-.35-.03-8.76-.83-18.33-5-10.54-4.59-18.3-11.48-22.76-20.15l-.23,16.96c-.01,1-.79,1.83-1.79,1.91l-13.45,1.04s-.1,0-.15,0c-.5,0-.97-.19-1.33-.53-.4-.38-.62-.9-.61-1.45,.62-27.54-8.65-70.99-8.75-71.43-.17-.79,.17-1.61,.85-2.04,7.46-4.75,15.1-5.75,20.19-5.75,2.69,0,4.39,.29,4.46,.3,.94,.16,1.62,.99,1.61,1.94l-.49,35.59c6.39-3.73,18.5-14.63,22.48-44.66,.09-.68,.54-1.27,1.17-1.53,.24-.1,.5-.15,.75-.15,.41,0,.82,.13,1.16,.39l22.75,17.06c.82,.62,1.02,1.76,.45,2.62-.73,1.11-17.66,26.53-36.87,39.2,3.44,4.23,11.45,11.02,27.37,11.02h0c3.65,0,7.56-.37,11.63-1.09,.11-.02,.23-.03,.34-.03,.6,0,1.17,.28,1.54,.76,.44,.58,.52,1.35,.21,2l-10.3,21.91c-.32,.69-1.01,1.12-1.76,1.12-.06,0-.12,0-.17,0Z"/>
              <path class="cls-2" d="M126.17,181.04c-.96,0-1.78-.7-1.92-1.65l-4.92-32.74c-.08-.54,.07-1.1,.42-1.52,.35-.42,.86-.68,1.41-.71,0,0,16.21-.7,16.24-.7,.51,0,1,.2,1.37,.56,.38,.38,.59,.9,.57,1.44l-1.12,33.44c-.04,1.04-.89,1.88-1.94,1.88h-10.12Zm3.09-39.2c-5.33,0-9.67-4.34-9.67-9.67s4.34-9.67,9.67-9.67,9.67,4.34,9.67,9.67-4.34,9.67-9.67,9.67Z"/>
              <path class="cls-8" d="M159.77,185.2c-5.56,0-10.88-2.91-15-8.18-3.66-4.69-6.19-11.07-6.92-17.5,0-.05,0-.1-.01-.15-.24-6.47,2.14-12.63,6.7-17.35,4.6-4.77,11.04-7.53,17.69-7.59l-9.28-22.37c-.2-.49-.2-1.04,.02-1.52,.21-.49,.61-.86,1.11-1.04l19.65-7.14c.21-.08,.44-.12,.66-.12,.31,0,.61,.07,.89,.22,.48,.25,.84,.69,.98,1.21l18.5,67.4c.27,.99-.27,2.02-1.24,2.35l-11.53,3.96c-.21,.07-.42,.11-.63,.11-.76,0-1.48-.45-1.79-1.2l-.33-.8c-3.37,4.08-8.11,7.02-14.36,8.94-1.7,.52-3.42,.79-5.11,.79h0Zm4.77-30.27c-.52,0-1.01,.04-1.46,.13-2.99,.63-4.08,3.45-3.82,5.96,.25,2.38,1.78,5.16,5.29,5.16h0c.13,0,.27,0,.41-.01,2.38-.38,5.94-3.2,6.86-8.38-2.27-2.09-5.22-2.85-7.29-2.85Z"/>
              <path class="cls-5" d="M202.8,158.93c-.36,0-.73,0-1.1-.02-4.2-.14-7.8-2-10.42-5.37-3.79-4.89-5.19-12.84-3.55-20.25,.01-.05,.02-.1,.04-.14,2.44-8.05,9.87-13.46,18.47-13.46,1.93,0,3.82,.28,5.66,.83l-1.13-18.12c-.03-.53,.15-1.05,.51-1.44,.36-.39,.86-.61,1.39-.62,0,0,16.25-.29,16.26-.29,.53,0,1.04,.22,1.4,.6,.37,.39,.57,.92,.53,1.46l-3.42,54.14c-.06,1.02-.91,1.82-1.94,1.82h-9.46c-1.01,0-1.85-.78-1.93-1.79-3.18,1.79-6.92,2.66-11.32,2.66Zm3.67-14.25c.16,.03,.33,.04,.51,.04,1.82,0,4.41-1.27,6.05-4.04-1.26-2.17-3.55-3.52-5.29-3.77-.13-.02-.29-.03-.44-.03-2.06,0-3.24,1.86-3.47,3.58-.1,.79-.21,3.41,2.64,4.22Z"/>
              <path class="cls-2" d="M242.62,149.52c-9.04,0-15.36-8.61-15.36-20.94,0-11.5,8.03-21.22,17.54-21.22s16.99,9.08,16.99,20.67c0,9.94-8.37,21.49-19.17,21.49Zm-.07-28.71c-3.01,0-4.73,2.56-4.73,7.02s1.85,7.02,4.94,7.02c2.32,0,3.5-2.57,3.5-7.64,0-6.4-2.23-6.4-3.7-6.4Z"/>
              <path class="cls-15" d="M268.98,158.47c-5.35,0-9.95-3.89-10.71-9.05-.64-4.4,.92-8.14,3.97-10.2h-.11c-1.05-.1-1.84-1.02-1.77-2.07,.02-.25,1.66-25.84-3.55-49.52-.13-.6,.03-1.23,.43-1.69,.37-.42,.9-.66,1.46-.66,.05,0,.11,0,.16,0l18.52,1.55c1.06,.09,1.85,1.01,1.77,2.07l-3.57,49.47c-.04,.52-.28,1-.67,1.34-.21,.17-.44,.3-.69,.38,1.87,1.74,3.18,4.26,3.62,7.25,.43,2.97,.13,5.31-.93,7.15-1.21,2.12-3.33,3.41-6.29,3.84-.54,.08-1.1,.12-1.64,.12Z"/>
            </g>
            <g>
              <path class="cls-2" d="M91.51,25.86l-15.54,31.98s-19.49-6.32-20.32,2.69c-.91,9.86,28.99,5.08,33.18,17.04,6.88,31.38-53.2,31.68-53.2,31.68l5.61-26.85s23.98,8.02,27.86-1.25c2.69-8.37-32.88-.6-33.17-26-.19-16.27,12.95-33.13,37.12-32.63,5.58,.12,11.74,1.16,18.47,3.34Z"/>
              <path class="cls-2" d="M110.3,53.06s-8.15,26.34-.8,26.54c3.29,.1,6.41-2.99,8.66-6l-.77-18.73,13.27,.36s-4.12,22.49-1.22,36.35l-10.47,1.69-.33-7.89c-3.27,3.96-8.88,9.37-14.98,9.11-22.04-.93-8.64-46.22-8.64-46.22l15.27,4.8Z"/>
              <path class="cls-2" d="M189.81,74.69c-4.35,30.66-27.76,26.31-39.53,17.58-3.4,11.98-5.93,22.89-5.34,27.09l-13.67-1.86s11.83-49.44,10.75-70.39c0,0,18.73-.04,21.98,2.21,0,0-1.27,3.68-2.77,8.1,6.56-3.19,14.43-5.17,20.28-3.09,5.73,2.03,9.53,7.93,8.3,20.36Zm-16.73-4.58c-.58-.8-1.23-1.32-1.95-1.63-5.06-2.15-12.57,6.49-16.45,11.41,12.87,13.46,24.14-1.85,18.4-9.78Z"/>
              <path class="cls-2" d="M229.04,64.57l-25.27,8.12c.11,.49,.24,.99,.39,1.49,2.3,7.85,5.5,10.58,10.25,9.19,3.93-1.15,6.53-5.05,5.81-11.31l13.86,2.26c-1.01,10.24-4.64,18.65-15.72,21.71-10.67,2.94-20.45-5.7-24.46-19.42-4.02-13.72,2.2-27.62,12.82-30.73,10.39-3.04,18.44,4.85,22.33,18.7Zm-25.59,.55l10.47-4.9c-1.19-1.7-2.85-2.18-5.38-1.44-2.68,.78-4.46,3.08-5.09,6.34Z"/>
              <path class="cls-2" d="M277.4,81.89l-16.98-.21s5.33-14.37-3.19-15.16c-2.62-.25-4.98,2.03-6.93,5.05l-.88,31.34-9.6-1.3-4.76-41.67,15.61-1.49-.15,5.41c3.45-3.41,9.8-7.31,17.21-5.63,13.05,2.95,9.67,23.67,9.67,23.67Z"/>
            </g>
            <g class="cls-14">
              <path class="cls-2" d="M55.65,60.53c.31-3.35,3.2-4.58,6.71-4.8-4.67-1.86-9.27-3.89-13.77-6.15-3.6-1.8-7.13-3.73-10.6-5.78-1.4,3.66-2.11,7.52-2.06,11.36,.3,25.4,35.86,17.63,33.17,26-3.89,9.27-27.86,1.25-27.86,1.25l-5.61,26.85s60.08-.3,53.2-31.68c-4.18-11.96-34.09-7.18-33.18-17.04Z"/>
              <path class="cls-2" d="M128.51,74.71c-3.48-.7-6.95-1.45-10.4-2.24l.05,1.12c-2.25,3.01-5.37,6.11-8.66,6-3.04-.08-3.43-4.63-2.84-9.94-2.45-.64-4.89-1.29-7.33-1.97-2.59-.72-5.18-1.45-7.76-2.2-1.55,12.91-.72,28.45,12.1,29,6.1,.26,11.71-5.15,14.98-9.11l.33,7.89,10.47-1.69c-1.05-4.99-1.18-11.09-.92-16.87Z"/>
              <path class="cls-2" d="M180.28,80.71c-.37,0-.73-.01-1.1-.02-1.46-.04-2.93-.09-4.39-.16-.59-.02-1.17-.04-1.76-.06-3.11,5.09-10.43,7.73-18.35-.57,.23-.29,.47-.6,.73-.91-.92-.11-1.83-.22-2.75-.33-.63-.08-1.26-.15-1.88-.24-3.8-.5-7.6-1.07-11.38-1.7-3.2,20.22-8.12,40.79-8.12,40.79l13.67,1.86c-.59-4.21,1.94-15.11,5.34-27.09,10.93,8.1,31.87,12.41,38.3-11.52-2.77,.03-5.54,.02-8.3-.04Z"/>
              <path class="cls-2" d="M219.67,78.27c-.95,2.66-2.85,4.4-5.26,5.1-3.33,.98-5.9-.08-7.93-3.51-3.73,.33-7.47,.57-11.2,.72,4.61,11.36,13.49,18.09,23.08,15.45,10.59-2.92,14.37-10.74,15.57-20.38-4.72,1.03-9.48,1.9-14.26,2.62Z"/>
              <path class="cls-2" d="M238.2,74.7c-.47,.11-.94,.21-1.42,.31l3.04,26.6,9.6,1.3,.88-31.34c.08-.12,.15-.23,.23-.34-4.06,1.3-8.16,2.47-12.33,3.47Z"/>
              <path class="cls-2" d="M262.5,67.06c-.72,.27-1.44,.53-2.15,.79,3.82,3.72,.07,13.83,.07,13.83l16.98,.21s2.01-12.37-3.09-19.36c-3.93,1.57-7.88,3.06-11.8,4.52Z"/>
            </g>
            <g>
              <path class="cls-10" d="M117.95,118.24s-18.25,27.62-38.04,39.75c3.01,4.5,14.23,17.31,42.14,12.36l-10.3,21.91s-33.33-3.02-41.84-29.68c-.43,.13-.86,.22-1.28,.33l-.32,23.07-13.45,1.04c.63-28.09-8.79-71.88-8.79-71.88,11.38-7.24,23.27-5.17,23.27-5.17l-.53,38.76c5.08-2.04,21.59-11.37,26.38-47.55l22.75,17.06Z"/>
              <path class="cls-13" d="M136.28,179.1h-10.12l-4.92-32.74,16.16-.7-1.12,33.44Zm-7.02-54.66c4.26,0,7.73,3.46,7.73,7.73s-3.46,7.73-7.73,7.73-7.73-3.46-7.73-7.73,3.46-7.73,7.73-7.73Z"/>
              <path class="cls-6" d="M192.9,171.57l-11.53,3.96-1.68-4.04c-3.05,5.09-8.02,8.81-15.38,11.07-12.88,3.95-22.96-9.47-24.53-23.26-.49-13.53,11.57-24.4,25.42-22.77l-10.45-25.22,19.65-7.14,18.5,67.4Zm-19.04-14.16l-.26-.62c-3.09-3.17-7.67-4.25-10.88-3.64-8.31,1.75-6.76,15.59,2.46,14.94,3.38-.49,7.83-4.28,8.67-10.69Z"/>
              <path class="cls-7" d="M225.52,156.12h-9.46l-.21-3.39c-3.52,2.97-8.11,4.44-14.08,4.25-10.45-.35-14.46-12.74-12.14-23.26,3.05-10.06,14.64-14.99,24.4-10.3l-1.32-21.14,16.23-.29-3.42,54.14Zm-10.4-15.2l-.03-.52c-1.47-3.11-4.56-5.06-7.07-5.41-6.54-.81-8.89,9.74-1.96,11.59,2.6,.5,6.82-1.16,9.06-5.65Z"/>
              <path class="cls-13" d="M259.85,128.04c0,10.65-8.99,19.55-17.23,19.55s-13.42-8.36-13.42-19,7.36-19.28,15.6-19.28,15.05,8.08,15.05,18.73Zm-23.98-.2c0,6.09,3.19,8.96,6.88,8.96,3.69,0,5.43-3.49,5.43-9.58s-1.95-8.34-5.64-8.34-6.67,2.87-6.67,8.96Z"/>
              <path class="cls-3" d="M277.23,88.77l-3.57,49.47-11.36-.96s1.74-25.82-3.59-50.07l18.52,1.55Zm-6.88,67.66c-4.91,.72-9.45-2.54-10.15-7.29-.7-4.75,1.58-8.84,6.49-9.57,5.03-.74,8.56,3.39,9.24,8.06,.7,4.75-.67,8.08-5.58,8.8Z"/>
            </g>
            <g class="cls-14">
              <path class="cls-10" d="M79.91,157.99c.43-.27,.86-.55,1.29-.83-5.46-.8-10.9-1.82-16.28-3.1-4.28-1.02-8.54-2.19-12.75-3.52,1.66,12.19,2.94,25.52,2.69,36.47l13.45-1.04,.32-23.07c.42-.1,.85-.2,1.28-.33,8.5,26.66,41.84,29.68,41.84,29.68l10.3-21.91c-27.91,4.94-39.13-7.87-42.14-12.36Z"/>
              <path class="cls-12" d="M127.15,159.27c-1.31,.05-2.63,.1-3.95,.14l2.96,19.7h10.12l.69-20.4c-3.27,.23-6.54,.44-9.81,.57Z"/>
              <path class="cls-6" d="M187.04,151.58c-5.4,1.13-10.84,2.15-16.3,3.06,1.03,.57,2.01,1.27,2.87,2.15l.26,.62c-.84,6.41-5.29,10.2-8.67,10.69-6.81,.48-9.43-6.95-6.99-11.57-6.13,.82-12.27,1.47-18.42,1.96,0,.27,0,.54,0,.81,1.57,13.79,11.65,27.22,24.53,23.26,7.36-2.26,12.33-5.99,15.38-11.07l1.68,4.04,11.53-3.96-5.51-20.07c-.12,.02-.23,.05-.35,.08Z"/>
              <path class="cls-7" d="M210.66,145.65c-1.2,.65-2.42,.97-3.49,1-5.15,1.43-10.33,2.73-15.54,3.9,2.11,3.71,5.48,6.26,10.14,6.42,5.97,.2,10.56-1.28,14.08-4.25l.21,3.39h9.46l.98-15.48c-5.24,1.8-10.52,3.47-15.84,5.01Z"/>
              <path class="cls-12" d="M247.5,132.7c-.82,2.65-2.38,4.09-4.75,4.09-1.17,0-2.3-.29-3.29-.89-2.75,1.07-5.53,2.09-8.31,3.09,2.22,5.2,6.22,8.58,11.46,8.58,8.24,0,17.23-8.9,17.23-19.55,0-.24-.02-.47-.03-.7-4.07,1.86-8.18,3.65-12.32,5.37Z"/>
              <path class="cls-1" d="M266.69,139.57c-4.91,.72-7.19,4.82-6.49,9.57,.7,4.75,5.24,8.01,10.15,7.29,4.91-.72,6.28-4.05,5.58-8.8-.68-4.67-4.21-8.8-9.24-8.06Z"/>
              <path class="cls-1" d="M273.66,138.24l1.31-18.22c-4.1,2.09-8.24,4.11-12.41,6.05,.02,6.83-.27,11.21-.27,11.21l11.36,.96Z"/>
            </g>
          </g>
        </g>
      </g>
    </g>
  </g>
</svg>